<svg width="20" height="20" viewBox="0 0 20 20" fill="none" xmlns="http://www.w3.org/2000/svg">
<path id="Vector" d="M19.4125 3.41255C20.1938 2.6313 20.1938 1.36255 19.4125 0.581299C18.6313 -0.199951 17.3625 -0.199951 16.5813 0.581299L10 7.1688L3.41255 0.587549C2.6313 -0.193701 1.36255 -0.193701 0.581299 0.587549C-0.199951 1.3688 -0.199951 2.63755 0.581299 3.4188L7.1688 10L0.587549 16.5875C-0.193701 17.3688 -0.193701 18.6376 0.587549 19.4188C1.3688 20.2001 2.63755 20.2001 3.4188 19.4188L10 12.8313L16.5875 19.4125C17.3688 20.1938 18.6376 20.1938 19.4188 19.4125C20.2001 18.6313 20.2001 17.3625 19.4188 16.5813L12.8313 10L19.4125 3.41255Z" fill="#D1D5DB"/>
</svg>
