<svg width="21" height="24" viewBox="0 0 21 24" fill="none" xmlns="http://www.w3.org/2000/svg">
<path id="Vector" d="M6.3375 0.829688L6 1.5H1.5C0.670312 1.5 0 2.17031 0 3C0 3.82969 0.670312 4.5 1.5 4.5H19.5C20.3297 4.5 21 3.82969 21 3C21 2.17031 20.3297 1.5 19.5 1.5H15L14.6625 0.829688C14.4094 0.31875 13.8891 0 13.3219 0H7.67813C7.11094 0 6.59062 0.31875 6.3375 0.829688ZM19.5 6H1.5L2.49375 21.8906C2.56875 23.0766 3.55312 24 4.73906 24H16.2609C17.4469 24 18.4312 23.0766 18.5062 21.8906L19.5 6Z" fill="#EF4444"/>
</svg>
