<svg width="96" height="120" viewBox="0 0 96 120" fill="none" xmlns="http://www.w3.org/2000/svg">
<g id="Group 36">
<path id="Vector" d="M79.3661 54.0636C78.4343 51.621 76.6761 49.5826 74.3983 48.304C72.1205 47.0253 69.4678 46.5876 66.903 47.0673C66.8054 46.8091 66.7078 46.5508 66.602 46.2711C65.8432 44.2547 64.5158 42.5021 62.7813 41.2263C61.0468 39.9506 58.9801 39.2068 56.8327 39.0855C54.6853 38.9642 52.5498 39.4707 50.6862 40.5432C48.8225 41.6158 47.3111 43.2081 46.3358 45.1265C44.4601 44.0389 42.3082 43.5247 40.1456 43.6474C37.983 43.77 35.9045 44.5242 34.1664 45.8167C32.4284 47.1093 31.1069 48.8836 30.3651 50.9209C29.6233 52.9582 29.4936 55.1692 29.992 57.281C28.4102 57.1779 26.8249 57.4084 25.3385 57.9578C23.0872 58.8152 21.1759 60.3825 19.8928 62.4235C18.6096 64.4645 18.024 66.8687 18.2241 69.274C18.4243 71.6792 19.3994 73.9551 21.0025 75.759C22.6056 77.5629 24.75 78.7969 27.1125 79.2753C26.6807 80.9181 26.6311 82.6388 26.9675 84.3049C27.304 85.971 28.0175 87.5381 29.0532 88.8856C30.0889 90.2331 31.4192 91.3251 32.9416 92.0775C34.4641 92.83 36.1382 93.2228 37.8351 93.2258C37.9499 94.149 38.1693 95.0563 38.489 95.93C39.5332 98.6925 41.6299 100.928 44.3177 102.144C47.0055 103.361 50.0644 103.459 52.8214 102.417C53.273 102.242 53.7115 102.035 54.1338 101.797C55.2637 104.157 57.1879 106.042 59.5677 107.122C61.9476 108.202 64.6304 108.407 67.1439 107.701C69.6574 106.995 71.8404 105.423 73.3085 103.262C74.7766 101.101 75.4358 98.4894 75.1699 95.8873C75.6324 95.749 76.0846 95.5781 76.523 95.3758C78.1997 94.7467 79.6988 93.7199 80.8922 92.3835C82.0855 91.0471 82.9375 89.4407 83.3753 87.7016C83.8132 85.9626 83.8238 84.1427 83.4064 82.3975C82.989 80.6524 82.1558 79.0338 80.9783 77.6804C82.5777 75.3871 83.2551 72.5734 82.8754 69.7998C82.4957 67.0262 81.0868 64.4963 78.9294 62.714C79.577 61.3756 79.9493 59.9203 80.0244 58.4343C80.0994 56.9483 79.8755 55.462 79.3661 54.0636ZM32.8829 51.0971C33.7617 48.5514 35.8128 46.9644 37.4704 47.5184C39.1281 48.0724 39.7762 50.6312 38.8894 53.1554C38.0025 55.6796 35.9891 57.3015 34.3233 56.726C32.6575 56.1505 32.0257 53.6347 32.8829 51.0971ZM22.7341 70.3544C21.0979 69.7923 20.4364 67.2631 21.2937 64.7255C22.1509 62.1879 24.2236 60.5928 25.8893 61.1683C27.5551 61.7438 28.187 64.2596 27.3297 66.7972C26.4725 69.3348 24.4161 70.973 22.7341 70.3544ZM35.9065 80.5259C35.0493 83.0635 32.9848 84.6801 31.3405 84.0965C29.6962 83.5128 29.0213 81.0132 29.9001 78.4675C30.7788 75.9218 32.8003 74.3215 34.4661 74.897C36.1319 75.4725 36.7637 77.9883 35.9065 80.5259ZM47.0028 90.3999C46.1455 92.9375 44.1025 94.546 42.4367 93.9705C40.771 93.395 40.1391 90.8792 40.9963 88.3416C41.8536 85.804 43.9262 84.2089 45.5839 84.7629C47.2415 85.3169 47.7956 87.8867 46.9169 90.4324L47.0028 90.3999ZM44.6496 67.8749C43.7924 70.4125 41.7412 71.9995 40.0754 71.4239C38.4097 70.8484 37.7563 68.3408 38.635 65.795C39.5138 63.2493 41.5434 61.6705 43.2092 62.246C44.875 62.8215 45.4831 65.4693 44.5637 67.9074L44.6496 67.8749Z" fill="#F59E0B"/>
<path id="Vector_2" d="M15.4079 47.7907C17.4993 47.5244 19.6196 47.9868 21.4127 49.1004C23.2058 50.214 24.5626 51.911 25.2553 53.9065L25.9641 53.6386C26.1042 51.4073 26.7422 49.2366 27.8313 47.2863C28.9203 45.336 30.4325 43.6556 32.2567 42.3691C34.0809 41.0825 36.1705 40.2224 38.3717 39.8522C40.5729 39.4819 42.8296 39.611 44.9757 40.2297C47.067 37.8087 49.8833 36.1291 53.0061 35.4405C56.1289 34.752 59.3916 35.0912 62.3092 36.4079C63.0665 33.5528 64.2454 30.8276 65.8067 28.3222C65.9217 28.1387 65.9748 27.923 65.9582 27.7069C65.9416 27.4908 65.8561 27.2856 65.7144 27.1216C65.5727 26.9576 65.3823 26.8435 65.1711 26.7959C64.9599 26.7484 64.7391 26.7699 64.5412 26.8575C60.9658 28.259 57.8597 30.6437 55.5803 33.7372C54.0207 29.005 51.5771 24.6118 48.3797 20.7919C48.2657 20.666 48.1225 20.5701 47.9628 20.5127C47.8031 20.4552 47.6318 20.438 47.464 20.4626C47.2962 20.4871 47.1371 20.5526 47.0006 20.6534C46.8642 20.7541 46.7547 20.887 46.6817 21.0402C45.0169 24.5191 43.9391 28.2508 43.4922 32.0839C41.9867 26.2828 38.4603 14.8755 33.0377 10.5305C32.8312 10.3802 32.5908 10.2836 32.3379 10.2495C32.085 10.2153 31.8278 10.2447 31.5892 10.3348C31.3506 10.425 31.1383 10.5732 30.9712 10.7661C30.8042 10.9589 30.6877 11.1904 30.6322 11.4397L29.2737 16.8723C29.2081 17.1594 29.2287 17.4597 29.3329 17.7353C29.4371 18.011 29.6203 18.2498 29.8594 18.4217C34.8755 22.6576 38.6561 28.1717 40.8009 34.3801C37.4448 34.0449 34.2371 32.821 31.5075 30.8342C31.3522 30.7124 31.1648 30.6387 30.9683 30.6222C30.7719 30.6057 30.575 30.6471 30.4019 30.7413C30.2288 30.8355 30.087 30.9784 29.9941 31.1523C29.9011 31.3263 29.861 31.5237 29.8787 31.7204C30.0503 34.7214 31.1378 37.5985 32.9943 39.9626C29.2887 36.953 24.8233 35.0309 20.095 34.4102C19.8846 34.385 19.6717 34.4268 19.4864 34.5295C19.3011 34.6322 19.1529 34.7907 19.0626 34.9825C18.9723 35.1744 18.9445 35.3899 18.9832 35.5986C19.0219 35.8072 19.1251 35.9985 19.2782 36.1454C21.3194 38.1039 24.2604 41.4685 24.1643 44.1365C20.9546 43.7148 17.6956 44.3265 14.8586 45.8832C14.6709 46.0032 14.5271 46.1808 14.4485 46.3895C14.3699 46.5982 14.3609 46.8268 14.4226 47.0413C14.4844 47.2558 14.6137 47.4447 14.7912 47.5797C14.9688 47.7148 15.1851 47.7888 15.4079 47.7907Z" fill="#082F49"/>
</g>
</svg>
