<svg width="87" height="78" viewBox="0 0 87 78" fill="none" xmlns="http://www.w3.org/2000/svg">
<path id="Vector" d="M48.3333 4.86841C48.3333 3.36007 47.6536 1.94314 46.4755 1.029C45.2974 0.114853 43.7719 -0.220333 42.3219 0.145325L15.1495 7.00141C11.9323 7.80891 9.66667 10.7342 9.66667 14.086V68.2491H4.83333C2.1599 68.2491 0 70.4278 0 73.1246C0 75.8213 2.1599 78 4.83333 78H14.5H43.5H48.3333V73.1246V4.86841ZM38.6667 38.9965C38.6667 41.6932 37.0505 43.8719 35.0417 43.8719C33.0328 43.8719 31.4167 41.6932 31.4167 38.9965C31.4167 36.2998 33.0328 34.121 35.0417 34.121C37.0505 34.121 38.6667 36.2998 38.6667 38.9965ZM53.1667 19.4947H67.6667V73.1246C67.6667 75.8213 69.8266 78 72.5 78H82.1667C84.8401 78 87 75.8213 87 73.1246C87 70.4278 84.8401 68.2491 82.1667 68.2491H77.3333V19.4947C77.3333 14.1165 72.9984 9.74385 67.6667 9.74385H53.1667V19.4947Z" fill="#F59E0B"/>
</svg>
