<svg width="26" height="30" viewBox="0 0 26 30" fill="none" xmlns="http://www.w3.org/2000/svg">
<g id="Group 1">
<path id="Vector" d="M12.9989 0C11.9717 0 11.1417 0.837891 11.1417 1.875V3C6.90514 3.86719 3.71317 7.65234 3.71317 12.1875V13.2891C3.71317 16.043 2.70916 18.7031 0.898443 20.7656L0.468978 21.252C-0.0185216 21.8027 -0.134593 22.5938 0.161389 23.2676C0.457371 23.9414 1.12478 24.375 1.85603 24.375H24.1417C24.873 24.375 25.5346 23.9414 25.8364 23.2676C26.1382 22.5938 26.0163 21.8027 25.5288 21.252L25.0993 20.7656C23.2886 18.7031 22.2846 16.0488 22.2846 13.2891V12.1875C22.2846 7.65234 19.0926 3.86719 14.856 3V1.875C14.856 0.837891 14.0261 0 12.9989 0ZM15.6279 28.9043C16.3243 28.2012 16.7132 27.2461 16.7132 26.25H12.9989H9.2846C9.2846 27.2461 9.67344 28.2012 10.3699 28.9043C11.0663 29.6074 12.0123 30 12.9989 30C13.9855 30 14.9315 29.6074 15.6279 28.9043Z" fill="#082F49"/>
<circle id="Ellipse 1" cx="21" cy="5" r="4" fill="#EF4444"/>
</g>
</svg>
